<?xml version="1.0" encoding="UTF-8"?>
<svg width="320px" height="58px" viewBox="0 0 320 58" version="1.1" xmlns="http://www.w3.org/2000/svg" xmlns:xlink="http://www.w3.org/1999/xlink">
    <!-- Generator: Sketch 54.1 (76490) - https://sketchapp.com -->
    <title>Logo</title>
    <desc>Created with Sketch.</desc>
    <g id="Logo" stroke="none" stroke-width="1" fill="none" fill-rule="evenodd">
        <g id="ESTiMATE" transform="translate(52.000000, 11.000000)" fill-rule="nonzero">
            <path d="M5.36132812,7.47070312 L5.36132812,17.6660156 L18.8964844,17.6660156 L18.8964844,21.2695312 L5.36132812,21.2695312 L5.36132812,31.8603516 L20.2587891,31.8603516 L20.2587891,35.859375 L0,35.859375 L0,3.47167969 L20.2587891,3.47167969 L20.2587891,7.47070312 L5.36132812,7.47070312 Z M46.1031235,26.9824219 C46.1031235,28.1543027 45.8614267,29.2895453 45.3780258,30.3881836 C44.894625,31.4868219 44.2134794,32.4536091 43.3345688,33.2885742 C42.4556582,34.1235393 41.3716846,34.7900366 40.0826157,35.2880859 C38.7935467,35.7861353 37.3287176,36.0351562 35.6880844,36.0351562 C34.9849559,36.0351562 34.2598655,35.9985355 33.5127915,35.925293 C32.7657174,35.8520504 32.0113304,35.7275399 31.2496079,35.5517578 C30.4878853,35.3759757 29.7627949,35.1342789 29.0743149,34.8266602 C28.3858349,34.5190414 27.7925791,34.14551 27.2945297,33.7060547 L28.2173813,29.9267578 C28.6275396,30.161134 29.1475539,30.3881825 29.7774399,30.6079102 C30.4073259,30.8276378 31.0591748,31.0327139 31.7330063,31.2231445 C32.4068378,31.4135752 33.0806592,31.5673822 33.7544907,31.6845703 C34.4283222,31.8017584 35.0581987,31.8603516 35.6441391,31.8603516 C37.4312574,31.8603516 38.8008726,31.4428753 39.7530258,30.6079102 C40.705179,29.772945 41.1812485,28.5351645 41.1812485,26.8945312 C41.1812485,25.8984325 40.8443378,25.0488316 40.1705063,24.3457031 C39.4966748,23.6425746 38.6543981,23.005374 37.6436508,22.434082 C36.6329036,21.8627901 35.5416059,21.2915068 34.369725,20.7202148 C33.1978442,20.1489229 32.0992224,19.4751015 31.0738266,18.6987305 C30.0484309,17.9223594 29.19883,17.0068412 28.5249985,15.9521484 C27.851167,14.8974557 27.5142563,13.5791095 27.5142563,11.9970703 C27.5142563,10.5615163 27.7779255,9.28711494 28.3052719,8.17382812 C28.8326183,7.06054131 29.5430604,6.11572654 30.4366196,5.33935547 C31.3301787,4.5629844 32.3702074,3.96972861 33.5567368,3.55957031 C34.7432661,3.14941201 35.995695,2.94433594 37.314061,2.94433594 C38.661724,2.94433594 40.024015,3.06884641 41.400975,3.31787109 C42.7779351,3.56689578 43.8912052,3.96972378 44.7408188,4.52636719 C44.5650367,4.90722847 44.3599606,5.32470476 44.1255844,5.77880859 C43.8912083,6.23291243 43.6714839,6.65771287 43.4664047,7.05322266 C43.2613256,7.44873245 43.0855461,7.77831899 42.939061,8.04199219 C42.7925759,8.30566538 42.7046861,8.45214829 42.6753891,8.48144531 C42.499607,8.39355425 42.3018551,8.27636792 42.0821274,8.12988281 C41.8623997,7.98339771 41.5474615,7.83691479 41.1373032,7.69042969 C40.7271449,7.54394458 40.1851581,7.44140654 39.5113266,7.3828125 C38.8374951,7.32421846 37.9732459,7.33886675 36.9185532,7.42675781 C36.3326127,7.48535186 35.7759777,7.6538072 35.2486313,7.93212891 C34.7212849,8.21045061 34.2525396,8.55468545 33.8423813,8.96484375 C33.432223,9.37500205 33.1099606,9.83642322 32.8755844,10.3491211 C32.6412083,10.861819 32.5240219,11.3525367 32.5240219,11.8212891 C32.5240219,12.9931699 32.8609326,13.9379847 33.5347641,14.6557617 C34.2085956,15.3735387 35.0435482,16.0034153 36.0396469,16.5454102 C37.0357457,17.0874051 38.1197192,17.6147435 39.2916,18.1274414 C40.4634809,18.6401393 41.5547786,19.2626917 42.5655258,19.9951172 C43.5762731,20.7275427 44.4185498,21.6430609 45.0923813,22.7416992 C45.7662128,23.8403375 46.1031235,25.2538976 46.1031235,26.9824219 Z M74.7599579,3.47167969 L74.7599579,7.07519531 L65.0919892,7.07519531 L65.0919892,35.859375 L59.7746063,35.859375 L59.7746063,7.07519531 L50.1066376,7.07519531 L50.1066376,3.47167969 L74.7599579,3.47167969 Z M86.4099564,35.859375 L81.0486283,35.859375 L81.0486283,11.0742188 L86.4099564,11.0742188 L86.4099564,35.859375 Z" id="ESTi" fill="#2296F3"></path>
            <path d="M119.021869,3.47167969 L124.383197,3.47167969 L124.383197,35.859375 L119.021869,35.859375 L119.021869,13.5791016 L111.770892,31.5966797 L107.112689,31.5966797 L99.8177674,13.5791016 L99.8177674,35.859375 L94.4564393,35.859375 L94.4564393,3.47167969 L99.8177674,3.47167969 L109.441791,25.6201172 L119.021869,3.47167969 Z M131.506828,35.859375 L142.844719,3.515625 L148.074211,3.515625 L159.324211,35.859375 L153.874992,35.859375 L151.545891,29.1357422 L139.373039,29.1357422 L136.999992,35.859375 L131.506828,35.859375 Z M140.603508,25.5761719 L150.271477,25.5761719 L145.481438,11.6015625 L140.603508,25.5761719 Z M189.299405,3.47167969 L189.299405,7.07519531 L179.631436,7.07519531 L179.631436,35.859375 L174.314053,35.859375 L174.314053,7.07519531 L164.646085,7.07519531 L164.646085,3.47167969 L189.299405,3.47167969 Z M201.388857,7.47070312 L201.388857,17.6660156 L214.924013,17.6660156 L214.924013,21.2695312 L201.388857,21.2695312 L201.388857,31.8603516 L216.286318,31.8603516 L216.286318,35.859375 L196.027528,35.859375 L196.027528,3.47167969 L216.286318,3.47167969 L216.286318,7.47070312 L201.388857,7.47070312 Z" id="MATE" fill="#2296F3"></path>
            <path d="M86.8933548,3.1640625 C86.8933548,4.04297314 86.5857407,4.78271184 85.9705033,5.38330078 C85.3552658,5.98388972 84.608203,6.28417969 83.7292923,6.28417969 C82.8503817,6.28417969 82.110643,5.97656558 81.5100541,5.36132812 C80.9094651,4.74609067 80.6091751,4.01367612 80.6091751,3.1640625 C80.6091751,2.28515186 80.9167893,1.53808901 81.5320267,0.922851562 C82.1472642,0.307614111 82.8796787,0 83.7292923,0 C84.608203,0 85.3552658,0.307614111 85.9705033,0.922851562 C86.5857407,1.53808901 86.8933548,2.28515186 86.8933548,3.1640625 Z" id="Path" fill="#1CC79C"></path>
        </g>
        <rect id="Rectangle" x="0" y="0" width="320" height="58" rx="2"></rect>
    </g>
</svg>